# xmcd
#
# Track frame offsets: 
#        150
#        18763
#        38688
#        57454
#        81772
#        98421
#        121465
#        141654
#        159413
#        175687
#        196127
#
# Disc length: 2906 seconds
#
# Revision: 0
# Processed by: cddbd v1.5.2PL0 Copyright (c) Steve Scherf et al.
# Submitted via: ExactAudioCopy v1.3
#
DISCID=850b580b
DTITLE=Mike Brookfield - Brookfield
DYEAR=2017
DGENRE=Blues
TTITLE0=A Message For Willie Johnson
TTITLE1=Beated To Death By The Blues
TTITLE2=Zombie Craze
TTITLE3=Suitcase Blues
TTITLE4=Don't Close The Gates
TTITLE5=Living In A Better World
TTITLE6=Letter From The Devil
TTITLE7=Hi Class Shoes
TTITLE8=Gun Crime
TTITLE9=This Restless Heart
TTITLE10=Written In Chains
EXTD=
EXTT0=
EXTT1=
EXTT2=
EXTT3=
EXTT4=
EXTT5=
EXTT6=
EXTT7=
EXTT8=
EXTT9=
EXTT10=
PLAYORDER=
